<svg width="505" height="377" viewBox="0 0 505 377" fill="none" xmlns="http://www.w3.org/2000/svg">
<g clip-path="url(#clip0_3128_2598)">
<path d="M51.5913 162.507C51.5683 162.366 51.4995 162.237 51.3957 162.139C51.2918 162.041 51.1587 161.98 51.0171 161.966L46.1121 161.87C46.1121 161.87 42.212 158.072 41.8291 157.676C41.6264 157.542 41.3962 157.457 41.1559 157.426C40.9155 157.394 40.6712 157.418 40.4414 157.496L38.4794 158.109C38.225 157.31 37.8965 156.538 37.4984 155.801C36.0986 153.121 34.0648 151.715 31.6123 151.715H31.1099L30.8706 151.462C30.3572 150.896 29.7246 150.453 29.0188 150.164C28.313 149.875 27.5519 149.748 26.7911 149.792C23.6207 149.876 20.4504 152.195 17.8902 156.27C16.0965 159.103 14.8769 162.264 14.3012 165.572L8.14 167.555C6.29762 168.132 6.23781 168.192 5.99854 169.959C5.7473 171.281 0.961914 208.682 0.961914 208.682L41.3267 215.617L58.7694 211.302L51.5913 162.507ZM36.4097 158.733L33.2633 159.707C33.2764 157.731 32.9527 155.768 32.3062 153.902C34.7587 154.335 35.8953 157.099 36.4456 158.709L36.4097 158.733ZM31.2534 160.344L24.506 162.435C25.1112 159.987 26.279 157.715 27.9156 155.801C28.5504 155.087 29.3294 154.518 30.2006 154.13C30.9791 156.105 31.3377 158.222 31.2534 160.344ZM26.9227 151.931C27.5972 151.898 28.2654 152.074 28.8368 152.436C27.8988 152.916 27.0524 153.559 26.3364 154.335C24.1815 156.838 22.7354 159.876 22.1492 163.132L16.6221 164.911C17.7108 159.779 21.9817 152.087 26.8868 151.931H26.9227Z" fill="#95BF46"/>
<path d="M51.0644 161.968L46.1594 161.872C46.1594 161.872 42.2593 158.074 41.8765 157.677C41.7246 157.536 41.5317 157.448 41.3262 157.425V215.63L58.7689 211.316L51.5908 162.509C51.5704 162.375 51.5086 162.25 51.4142 162.153C51.3197 162.056 51.1974 161.991 51.0644 161.968Z" fill="#5F8E3E"/>
<path d="M31.6362 171.006L29.6024 178.638C28.0352 177.986 26.3438 177.691 24.6495 177.773C20.7136 178.025 20.6657 180.525 20.7136 181.15C20.9169 184.563 29.8656 185.308 30.3681 193.301C30.7629 199.598 27.0422 203.901 21.6826 204.237C19.8794 204.395 18.0631 204.175 16.3495 203.589C14.6358 203.004 13.0623 202.066 11.729 200.836L13.0928 195.019C13.0928 195.019 16.6819 197.711 19.5053 197.531C20.1717 197.515 20.8051 197.237 21.2685 196.755C21.732 196.274 21.9882 195.629 21.9817 194.959V194.815C21.6946 190.368 14.4208 190.632 13.9542 183.313C13.5714 177.172 17.6031 170.91 26.4919 170.345C28.2347 170.147 29.9994 170.373 31.6362 171.006Z" fill="white"/>
<path d="M82.5288 187.303C80.495 186.197 79.4542 185.26 79.4542 183.986C79.4542 182.351 80.9017 181.306 83.1628 181.306C84.8782 181.34 86.5698 181.716 88.1397 182.411L89.994 176.703C89.994 176.703 88.2952 175.369 83.2825 175.369C76.2958 175.369 71.4626 179.383 71.4626 184.983C71.4626 188.18 73.7237 190.62 76.7265 192.375C79.1192 193.769 80.0284 194.778 80.0284 196.209C80.0284 197.639 78.8321 198.949 76.559 198.949C74.278 198.85 72.0454 198.255 70.015 197.206L68.041 202.903C70.4396 204.274 73.1661 204.96 75.9249 204.886C83.103 204.886 88.2593 201.28 88.2593 194.935C88.2952 191.593 85.6512 189.106 82.5288 187.303ZM111.145 175.308C109.501 175.317 107.881 175.704 106.408 176.439C104.936 177.175 103.651 178.239 102.651 179.551H102.532L105.642 163.422H97.6506L89.8743 204.405H97.8659L100.546 190.392C101.587 185.104 104.314 181.834 106.862 181.834C108.657 181.834 109.351 183.036 109.351 184.803C109.348 186.013 109.232 187.22 109.004 188.409L105.989 204.465H113.981L117.115 187.88C117.461 186.154 117.653 184.4 117.689 182.64C117.689 178.049 115.321 175.308 111.145 175.308ZM135.766 175.308C126.195 175.308 119.783 184.034 119.783 193.757C119.783 199.982 123.599 204.994 130.789 204.994C140.229 204.994 146.605 196.497 146.605 186.546C146.605 180.777 143.243 175.308 135.766 175.308ZM131.83 198.805C129.103 198.805 127.942 196.485 127.942 193.577C127.942 188.973 130.335 181.462 134.666 181.462C137.501 181.462 138.434 183.866 138.434 186.269C138.434 191.257 136.053 198.805 131.83 198.805ZM167.051 175.308C161.655 175.308 158.593 180.116 158.593 180.116H158.473L158.939 175.813H151.869C151.522 178.722 150.888 183.144 150.254 186.462L144.691 215.895H152.683L154.884 204.033H155.063C156.508 204.79 158.125 205.15 159.753 205.078C169.144 205.078 175.305 195.463 175.305 185.632C175.282 180.14 172.901 175.308 167.051 175.308ZM159.406 198.937C158.198 198.946 157.026 198.52 156.104 197.735L157.432 190.235C158.365 185.224 161.021 181.907 163.749 181.907C166.141 181.907 166.943 184.178 166.943 186.329C166.943 191.593 163.868 198.937 159.406 198.937ZM186.695 163.783C186.095 163.781 185.5 163.898 184.945 164.128C184.39 164.357 183.885 164.694 183.46 165.119C183.034 165.544 182.696 166.049 182.465 166.606C182.234 167.162 182.114 167.759 182.113 168.362V168.446C182.033 169.424 182.342 170.394 182.972 171.144C183.602 171.893 184.501 172.362 185.474 172.448H186.001C186.595 172.471 187.187 172.375 187.745 172.167C188.302 171.96 188.813 171.644 189.248 171.237C189.684 170.831 190.036 170.342 190.283 169.8C190.53 169.257 190.669 168.67 190.691 168.073V167.821C190.743 166.811 190.394 165.821 189.722 165.069C189.049 164.317 188.107 163.863 187.101 163.807L186.695 163.783ZM175.509 204.405H183.512L188.956 175.945H180.904L175.509 204.405ZM209.294 175.885H203.731L204.018 174.551C204.484 171.811 206.099 169.371 208.803 169.371C209.669 169.369 210.529 169.507 211.351 169.78L212.919 163.494C211.537 162.952 210.056 162.715 208.576 162.797C205.731 162.711 202.952 163.663 200.752 165.477C198.213 167.876 196.574 171.081 196.11 174.551L195.883 175.885H192.174L190.978 181.895H194.686L190.463 204.357H198.455L202.678 181.979H208.193L209.294 175.885ZM228.519 175.969C228.519 175.969 223.53 188.625 221.341 195.524H221.221C221.066 193.3 219.259 175.969 219.259 175.969H210.885L215.67 202.11C215.735 202.332 215.754 202.565 215.725 202.794C215.696 203.024 215.62 203.245 215.503 203.444C214.452 205.367 212.964 207.014 211.16 208.251C209.768 209.221 208.245 209.986 206.638 210.523L208.839 217.325C211.767 216.545 214.456 215.046 216.663 212.962C220.252 209.525 223.674 204.237 227.143 197.014L236.87 175.969H228.519Z" fill="black"/>
</g>
<g clip-path="url(#clip1_3128_2598)">
<path d="M192.356 29.8467H179.366V31.227C183.429 31.227 184.082 32.0993 184.082 37.2608V46.5658C184.082 51.7267 183.43 52.6718 179.366 52.6718C176.246 52.2359 174.141 50.5636 171.238 47.3652L167.9 43.731C172.399 42.9303 174.794 40.0962 174.794 36.8972C174.794 32.9 171.384 29.8467 164.997 29.8467H152.225V31.227C156.288 31.227 156.941 32.0993 156.941 37.2608V46.5658C156.941 51.7267 156.288 52.6718 152.225 52.6718V54.0527H166.666V52.6718C162.602 52.6718 161.949 51.7267 161.949 46.5658V43.9495H163.182L171.238 54.0527H192.356C202.734 54.0527 207.233 48.5289 207.233 41.913C207.233 35.2983 202.734 29.8467 192.356 29.8467ZM161.95 41.6945V32.0277H164.925C168.19 32.0277 169.642 34.2809 169.642 36.8978C169.642 39.4424 168.19 41.6951 164.925 41.6951H161.95V41.6945ZM192.574 51.7995H192.066C189.454 51.7995 189.091 51.1457 189.091 47.8017V32.0277C189.091 32.0277 192.284 32.0277 192.574 32.0277C200.122 32.0277 201.5 37.5516 201.5 41.8408C201.5 46.2744 200.121 51.7995 192.574 51.7995Z" fill="#00749A"/>
<path d="M111.804 44.3845L116.812 29.5545C118.264 25.2659 117.61 24.0306 112.966 24.0306V22.5762H126.609V24.0306C122.037 24.0306 120.949 25.1208 119.135 30.4273L110.861 55.2878H109.918L102.515 32.5349L94.9682 55.2878H94.0246L85.9695 30.4273C84.2279 25.1208 83.0668 24.0306 78.8574 24.0306V22.5762H94.9682V24.0306C90.6861 24.0306 89.5244 25.048 91.0491 29.5545L95.9111 44.3845L103.241 22.5762H104.62L111.804 44.3845Z" fill="#00749A"/>
<path d="M136.477 54.9964C128.495 54.9964 121.963 49.1089 121.963 41.9115C121.963 34.7881 128.496 28.8994 136.477 28.8994C144.46 28.8994 150.991 34.7881 150.991 41.9115C150.991 49.1089 144.46 54.9964 136.477 54.9964ZM136.477 31.1545C129.801 31.1545 127.479 37.187 127.479 41.9121C127.479 46.7106 129.801 52.6709 136.477 52.6709C143.227 52.6709 145.549 46.7106 145.549 41.9121C145.549 37.187 143.227 31.1545 136.477 31.1545Z" fill="#00749A"/>
<path d="M225.157 52.5987V54.0525H208.538V52.5987C213.401 52.5987 214.272 51.3634 214.272 44.0931V32.4633C214.272 25.193 213.401 24.0306 208.538 24.0306V22.5762H223.56C231.034 22.5762 235.172 26.4289 235.172 31.591C235.172 36.6068 231.034 40.5318 223.56 40.5318H219.423V44.0925C219.423 51.3634 220.294 52.5987 225.157 52.5987ZM223.56 25.193H219.423V37.8421H223.56C227.624 37.8421 229.511 35.0073 229.511 31.591C229.511 28.1019 227.624 25.193 223.56 25.193Z" fill="#464342"/>
<path d="M285.026 47.2201L284.663 48.5283C284.011 50.9272 283.211 51.7995 278.059 51.7995H277.043C273.27 51.7995 272.616 50.9272 272.616 45.7663V42.4229C278.277 42.4229 278.713 42.931 278.713 46.7115H280.092V35.8798H278.713C278.713 39.6597 278.277 40.1684 272.616 40.1684V32.0277H276.607C281.761 32.0277 282.558 32.9 283.211 35.2989L283.575 36.6793H284.735L284.228 29.8467H262.892V31.227C266.955 31.227 267.609 32.0993 267.609 37.2608V46.5658C267.609 51.2871 267.054 52.4765 263.85 52.6461C260.805 52.1802 258.714 50.5165 255.854 47.3652L252.515 43.731C257.015 42.9303 259.41 40.0962 259.41 36.8972C259.41 32.9 255.999 29.8467 249.613 29.8467H236.841V31.227C240.904 31.227 241.557 32.0993 241.557 37.2608V46.5658C241.557 51.7267 240.905 52.6718 236.841 52.6718V54.0527H251.283V52.6718C247.219 52.6718 246.565 51.7267 246.565 46.5658V43.9495H247.799L255.854 54.0527H285.68L286.116 47.2208H285.026V47.2201ZM246.565 41.6945V32.0277H249.54C252.805 32.0277 254.257 34.2809 254.257 36.8978C254.257 39.4424 252.805 41.6951 249.54 41.6951H246.565V41.6945Z" fill="#464342"/>
<path d="M299.758 54.9967C296.856 54.9967 294.315 53.4707 293.227 52.5249C292.864 52.8892 292.211 53.9794 292.066 54.9967H290.687V44.9664H292.138C292.72 49.7636 296.057 52.5984 300.339 52.5984C302.661 52.5984 304.548 51.2903 304.548 49.1099C304.548 47.2202 302.879 45.7658 299.904 44.3848L295.767 42.4223C292.864 41.0402 290.687 38.6412 290.687 35.4434C290.687 31.9543 293.953 28.9745 298.452 28.9745C300.847 28.9745 302.879 29.8467 304.113 30.8641C304.476 30.5733 304.839 29.7733 305.057 28.9004H306.435V37.4788H304.911C304.403 34.0619 302.516 31.2271 298.671 31.2271C296.639 31.2271 294.751 32.3901 294.751 34.2082C294.751 36.0978 296.275 37.1152 299.759 38.7147L303.75 40.6772C307.233 42.3489 308.612 45.0398 308.612 47.2202C308.612 51.7989 304.62 54.9967 299.758 54.9967Z" fill="#464342"/>
<path d="M322.11 54.9967C319.206 54.9967 316.666 53.4707 315.578 52.5249C315.215 52.8892 314.562 53.9794 314.417 54.9967H313.038V44.9664H314.49C315.07 49.7636 318.408 52.5984 322.69 52.5984C325.012 52.5984 326.899 51.2903 326.899 49.1099C326.899 47.2202 325.23 45.7658 322.254 44.3848L318.118 42.4223C315.215 41.0402 313.038 38.6412 313.038 35.4434C313.038 31.9543 316.303 28.9745 320.803 28.9745C323.198 28.9745 325.229 29.8467 326.464 30.8641C326.826 30.5733 327.189 29.7733 327.406 28.9004H328.785V37.4788H327.262C326.753 34.0619 324.867 31.2271 321.021 31.2271C318.989 31.2271 317.101 32.3901 317.101 34.2082C317.101 36.0978 318.626 37.1152 322.11 38.7147L326.1 40.6772C329.584 42.3489 330.962 45.0398 330.962 47.2202C330.962 51.7989 326.971 54.9967 322.11 54.9967Z" fill="#464342"/>
<path d="M6.28369 37.8237C6.28369 50.5572 13.6714 61.5615 24.3842 66.7762L9.06425 24.7314C7.28225 28.7323 6.28369 33.1599 6.28369 37.8237Z" fill="#464342"/>
<path d="M60.0813 36.2006C60.0813 32.2248 58.6556 29.4714 57.4327 27.3283C55.8047 24.6784 54.2788 22.4344 54.2788 19.7845C54.2788 16.8273 56.5179 14.0745 59.6719 14.0745C59.8142 14.0745 59.9493 14.0923 60.088 14.1002C54.3741 8.85671 46.7615 5.65527 38.4003 5.65527C27.1803 5.65527 17.309 11.4215 11.5664 20.1554C12.3199 20.1781 13.03 20.194 13.6332 20.194C16.9925 20.194 22.1924 19.7857 22.1924 19.7857C23.9237 19.6835 24.1278 22.2305 22.3984 22.4356C22.3984 22.4356 20.6585 22.6407 18.7225 22.7423L30.418 57.5878L37.4464 36.4736L32.4426 22.741C30.7131 22.6394 29.0747 22.4344 29.0747 22.4344C27.3441 22.3328 27.547 19.6822 29.2776 19.7845C29.2776 19.7845 34.5815 20.1927 37.7372 20.1927C41.0959 20.1927 46.2965 19.7845 46.2965 19.7845C48.029 19.6822 48.2325 22.2293 46.5024 22.4344C46.5024 22.4344 44.7589 22.6394 42.8266 22.741L54.4328 57.3227L57.6362 46.6C59.0247 42.1505 60.0813 38.9545 60.0813 36.2006Z" fill="#464342"/>
<path d="M38.9631 40.6387L29.3271 68.6859C32.2043 69.533 35.247 69.9964 38.3997 69.9964C42.1397 69.9964 45.7263 69.3488 49.0648 68.1729C48.9786 68.0352 48.9004 67.8889 48.8363 67.7297L38.9631 40.6387Z" fill="#464342"/>
<path d="M66.5808 22.3896C66.7189 23.4144 66.7971 24.5144 66.7971 25.6976C66.7971 28.9621 66.1884 32.6318 64.3551 37.2203L54.5449 65.6311C64.0929 60.054 70.5151 49.6925 70.5151 37.8245C70.5157 32.2315 69.0894 26.9721 66.5808 22.3896Z" fill="#464342"/>
<path d="M38.3998 0.325195C17.7571 0.325195 0.961914 17.1471 0.961914 37.8243C0.961914 58.5039 17.7571 75.3252 38.3998 75.3252C59.0419 75.3252 75.8395 58.5039 75.8395 37.8243C75.8389 17.1471 59.0419 0.325195 38.3998 0.325195ZM38.3998 73.6063C18.7037 73.6063 2.67853 57.5544 2.67853 37.8243C2.67853 18.0953 18.7031 2.04467 38.3998 2.04467C58.0953 2.04467 74.1193 18.0953 74.1193 37.8243C74.1193 57.5544 58.0953 73.6063 38.3998 73.6063Z" fill="#464342"/>
</g>
<path d="M53.0683 320.666L48.5979 370.746L28.5031 376.317L8.46374 370.754L3.99805 320.666H53.0683Z" fill="#E44D26"/>
<path d="M28.5337 372.058L44.7712 367.556L48.5915 324.761H28.5337V372.058Z" fill="#F16529"/>
<path d="M19.8425 337.047H28.5328V330.904H28.5116H13.1289L13.276 332.552L14.7858 349.481H28.5328V343.338H20.4039L19.8425 337.047Z" fill="#EBEBEB"/>
<path d="M21.2272 352.553H17.9028H15.0605L15.9212 362.198L28.5048 365.692L28.5331 365.684V359.292L28.5062 359.299L21.6646 357.452L21.2272 352.553Z" fill="#EBEBEB"/>
<path d="M8.56299 307.054H11.6848V310.138H14.5406V307.054H17.6625V316.394H14.5407V313.266H11.685V316.394H8.56312V307.054H8.56299Z" fill="black"/>
<path d="M21.7674 310.151H19.019V307.054H27.639V310.151H24.8895V316.394H21.7675V310.151H21.7674Z" fill="black"/>
<path d="M29.0083 307.054H32.2635L34.2659 310.336L36.2663 307.054H39.5227V316.394H36.4137V311.764L34.2659 315.085H34.2122L32.0629 311.764V316.394H29.0083V307.054Z" fill="black"/>
<path d="M41.0767 307.054H44.1994V313.307H48.5896V316.394H41.0767V307.054Z" fill="black"/>
<path d="M28.5127 349.481H36.0772L35.3642 357.448L28.5127 359.297V365.688L41.1063 362.198L41.1987 361.16L42.6423 344.987L42.7922 343.338H41.1368H28.5127V349.481Z" fill="white"/>
<path d="M28.5127 337.032V337.047H43.3314H43.3512L43.4744 335.667L43.7543 332.552L43.9012 330.904H28.5127V334.72V337.032Z" fill="white"/>
<path d="M127.573 376.317L107.534 370.754L103.068 320.666H152.139L147.668 370.746L127.573 376.317Z" fill="#264DE4"/>
<path d="M143.842 367.556L147.662 324.761H127.604V372.058L143.842 367.556Z" fill="#2965F1"/>
<path d="M113.305 343.338L113.856 349.481H127.603V343.338H113.305Z" fill="#EBEBEB"/>
<path d="M112.199 330.904L112.758 337.047H127.603V330.904H127.582H112.199Z" fill="#EBEBEB"/>
<path d="M127.603 359.292L127.576 359.299L120.735 357.452L120.298 352.553H116.973H114.131L114.992 362.198L127.575 365.692L127.603 365.684V359.292Z" fill="#EBEBEB"/>
<path d="M114.617 307.054H122.058V310.165H117.729V313.277H122.058V316.388H114.617V307.054Z" fill="black"/>
<path d="M123.545 307.054H130.985V309.759H126.656V310.3H130.985V316.523H123.545V313.682H127.874V313.141H123.545V307.054Z" fill="black"/>
<path d="M132.474 307.054H139.914V309.759H135.585V310.3H139.914V316.523H132.474V313.682H136.803V313.141H132.474V307.054Z" fill="black"/>
<path d="M141.863 343.338L142.972 330.904H127.583V337.047H136.239L135.68 343.338H127.583V349.481H135.148L134.434 357.448L127.583 359.297V365.689L140.177 362.198L140.269 361.16L141.713 344.988L141.863 343.338Z" fill="white"/>
<g clip-path="url(#clip2_3128_2598)">
<path d="M493.538 346.817C490.889 346.831 488.586 347.481 486.657 348.441C485.95 347.015 485.242 345.743 485.117 344.811C484.978 343.723 484.812 343.059 484.978 341.76C485.145 340.46 485.894 338.61 485.88 338.469C485.866 338.327 485.714 337.663 484.188 337.649C482.661 337.635 481.343 337.946 481.191 338.356C481.038 338.765 480.747 339.698 480.553 340.658C480.289 342.071 477.5 347.114 475.905 349.755C475.392 348.724 474.948 347.82 474.851 347.099C474.712 346.012 474.545 345.348 474.712 344.048C474.878 342.749 475.628 340.898 475.614 340.757C475.6 340.616 475.447 339.952 473.921 339.938C472.395 339.924 471.077 340.234 470.924 340.644C470.772 341.054 470.605 342.014 470.286 342.946C469.967 343.879 466.263 352.298 465.292 354.473C464.792 355.589 464.362 356.479 464.057 357.086C464.057 357.086 464.043 357.129 464.001 357.199C463.738 357.722 463.585 358.004 463.585 358.004C463.585 358.004 463.585 358.004 463.585 358.019C463.377 358.4 463.155 358.753 463.044 358.753C462.961 358.753 462.808 357.736 463.072 356.352C463.627 353.428 464.945 348.879 464.931 348.724C464.931 348.639 465.181 347.848 464.071 347.438C462.989 347.029 462.6 347.707 462.503 347.707C462.406 347.707 462.337 347.947 462.337 347.947C462.337 347.947 463.544 342.833 460.034 342.833C457.841 342.833 454.817 345.277 453.319 347.481C452.375 348.003 450.364 349.119 448.213 350.32C447.395 350.786 446.548 351.252 445.757 351.69C445.702 351.634 445.646 351.563 445.591 351.507C441.346 346.888 433.493 343.624 433.826 337.423C433.951 335.163 434.714 329.23 448.907 322.026C460.588 316.164 469.884 317.789 471.493 321.391C473.796 326.532 466.513 336.081 454.442 337.466C449.836 337.988 447.422 336.18 446.812 335.502C446.174 334.796 446.077 334.754 445.841 334.895C445.452 335.107 445.702 335.742 445.841 336.11C446.201 337.07 447.686 338.765 450.197 339.599C452.417 340.333 457.814 340.743 464.348 338.172C471.66 335.29 477.376 327.281 475.697 320.571C474.018 313.763 462.919 311.517 452.417 315.317C446.174 317.577 439.403 321.136 434.534 325.77C428.748 331.279 427.833 336.067 428.207 338.073C429.553 345.192 439.195 349.826 443.052 353.258C442.858 353.371 442.678 353.47 442.525 353.555C440.596 354.529 433.243 358.442 431.412 362.581C429.331 367.271 431.745 370.633 433.341 371.085C438.293 372.483 443.385 369.969 446.118 365.816C448.851 361.663 448.518 356.267 447.256 353.795C447.242 353.767 447.228 353.738 447.2 353.71C447.7 353.414 448.213 353.103 448.713 352.806C449.698 352.213 450.669 351.662 451.501 351.21C451.029 352.524 450.683 354.092 450.516 356.352C450.308 359.007 451.376 362.454 452.778 363.81C453.402 364.403 454.137 364.417 454.609 364.417C456.246 364.417 456.981 363.033 457.8 361.395C458.799 359.389 459.701 357.058 459.701 357.058C459.701 357.058 458.577 363.358 461.629 363.358C462.739 363.358 463.863 361.889 464.362 361.14C464.362 361.154 464.362 361.154 464.362 361.154C464.362 361.154 464.39 361.112 464.445 361.013C464.556 360.83 464.626 360.717 464.626 360.717C464.626 360.717 464.626 360.702 464.626 360.688C465.07 359.897 466.069 358.103 467.553 355.123C469.468 351.281 471.313 346.478 471.313 346.478C471.313 346.478 471.479 347.65 472.048 349.6C472.381 350.744 473.075 352.001 473.63 353.216C473.186 353.851 472.908 354.205 472.908 354.205C472.908 354.205 472.908 354.205 472.922 354.219C472.561 354.699 472.173 355.222 471.743 355.73C470.231 357.567 468.427 359.671 468.177 360.279C467.886 360.999 467.955 361.522 468.51 361.945C468.913 362.256 469.634 362.299 470.369 362.256C471.729 362.157 472.686 361.818 473.158 361.606C473.893 361.338 474.753 360.928 475.558 360.321C477.043 359.205 477.944 357.609 477.861 355.504C477.82 354.346 477.445 353.188 476.987 352.1C477.126 351.902 477.251 351.704 477.389 351.507C479.734 348.018 481.552 344.189 481.552 344.189C481.552 344.189 481.718 345.362 482.287 347.311C482.564 348.3 483.133 349.374 483.633 350.419C481.427 352.241 480.067 354.36 479.582 355.744C478.707 358.315 479.387 359.473 480.678 359.742C481.26 359.869 482.093 359.586 482.703 359.318C483.48 359.064 484.396 358.626 485.27 357.976C486.754 356.86 488.183 355.306 488.1 353.202C488.058 352.241 487.809 351.295 487.462 350.377C489.335 349.586 491.749 349.148 494.829 349.515C501.433 350.306 502.737 354.501 502.487 356.267C502.237 358.033 500.85 358.993 500.392 359.29C499.934 359.586 499.782 359.685 499.823 359.897C499.879 360.208 500.101 360.194 500.489 360.137C501.03 360.038 503.958 358.711 504.082 355.462C504.291 351.309 500.406 346.774 493.538 346.817ZM442.594 364.304C440.402 366.734 437.35 367.652 436.032 366.875C434.617 366.042 435.172 362.454 437.863 359.883C439.5 358.315 441.609 356.86 443.01 355.97C443.33 355.773 443.801 355.49 444.37 355.137C444.467 355.08 444.523 355.052 444.523 355.052C444.634 354.982 444.745 354.911 444.856 354.84C445.841 358.513 444.897 361.748 442.594 364.304ZM458.549 353.258C457.786 355.151 456.19 359.996 455.219 359.728C454.387 359.502 453.874 355.829 455.053 352.199C455.649 350.377 456.912 348.201 457.647 347.354C458.84 345.998 460.158 345.546 460.477 346.096C460.88 346.817 459.021 352.072 458.549 353.258ZM471.715 359.671C471.396 359.841 471.091 359.954 470.952 359.869C470.855 359.812 471.091 359.586 471.091 359.586C471.091 359.586 472.742 357.778 473.394 356.959C473.768 356.479 474.212 355.914 474.684 355.278C474.684 355.335 474.684 355.405 474.684 355.462C474.684 357.623 472.631 359.078 471.715 359.671ZM481.871 357.312C481.635 357.143 481.676 356.578 482.467 354.812C482.772 354.12 483.494 352.962 484.729 351.846C484.867 352.298 484.965 352.736 484.951 353.145C484.937 355.871 483.022 356.888 481.871 357.312Z" fill="#CD6799"/>
</g>
<path d="M203.25 342.481C203.25 353.998 220.437 363.334 241.639 363.334C262.84 363.334 280.028 353.998 280.028 342.481C280.028 330.964 262.84 321.628 241.639 321.628C220.437 321.628 203.25 330.964 203.25 342.481Z" fill="url(#paint0_radial_3128_2598)"/>
<path d="M241.639 361.786C262.012 361.786 278.528 353.143 278.528 342.481C278.528 331.82 262.012 323.177 241.639 323.177C221.265 323.177 204.749 331.82 204.749 342.481C204.749 353.143 221.265 361.786 241.639 361.786Z" fill="#777BB3"/>
<path d="M224.107 344.875C225.782 344.875 227.033 344.556 227.824 343.927C228.607 343.305 229.147 342.226 229.431 340.722C229.695 339.316 229.594 338.334 229.132 337.805C228.659 337.263 227.636 336.989 226.092 336.989H223.415L221.931 344.875H224.107ZM215.351 354.589C215.226 354.589 215.108 354.532 215.029 354.432C214.95 354.333 214.918 354.203 214.942 354.077L218.875 333.179C218.913 332.977 219.085 332.831 219.284 332.831H227.761C230.426 332.831 232.409 333.578 233.655 335.052C234.908 336.533 235.295 338.603 234.805 341.206C234.606 342.266 234.263 343.25 233.786 344.132C233.308 345.014 232.677 345.831 231.91 346.559C230.991 347.447 229.952 348.091 228.822 348.47C227.711 348.843 226.284 349.033 224.581 349.033H221.148L220.168 354.241C220.13 354.443 219.959 354.589 219.759 354.589H215.351Z" fill="black"/>
<path d="M223.758 337.419H226.092C227.955 337.419 228.603 337.841 228.823 338.093C229.188 338.51 229.257 339.391 229.022 340.64C228.758 342.038 228.27 343.029 227.57 343.586C226.853 344.156 225.688 344.444 224.107 344.444H222.436L223.758 337.419ZM227.761 332.4H219.284C218.885 332.4 218.542 332.692 218.466 333.097L214.533 353.994C214.485 354.246 214.55 354.507 214.708 354.706C214.866 354.904 215.102 355.019 215.351 355.019H219.759C220.158 355.019 220.501 354.727 220.577 354.322L221.492 349.463H224.581C226.328 349.463 227.799 349.266 228.952 348.878C230.138 348.48 231.229 347.806 232.194 346.873C232.993 346.114 233.651 345.263 234.149 344.341C234.648 343.42 235.006 342.392 235.214 341.287C235.73 338.548 235.311 336.355 233.969 334.768C232.64 333.197 230.551 332.4 227.761 332.4ZM221.425 345.305H224.107C225.884 345.305 227.208 344.959 228.078 344.267C228.948 343.576 229.535 342.421 229.84 340.804C230.132 339.251 229.999 338.155 229.441 337.516C228.883 336.878 227.767 336.558 226.092 336.558H223.071L221.425 345.305ZM227.761 333.261C230.312 333.261 232.172 333.952 233.341 335.334C234.511 336.716 234.863 338.646 234.396 341.123C234.204 342.144 233.88 343.076 233.422 343.922C232.964 344.767 232.367 345.541 231.628 346.242C230.748 347.093 229.77 347.699 228.694 348.06C227.618 348.422 226.247 348.602 224.581 348.602H220.805L219.759 354.158H215.351L219.284 333.261H227.761Z" fill="white"/>
<path d="M244.913 349.032C244.789 349.032 244.671 348.975 244.592 348.876C244.513 348.777 244.481 348.646 244.504 348.52L246.244 339.274C246.41 338.394 246.369 337.763 246.129 337.496C245.983 337.333 245.542 337.06 244.24 337.06H241.088L238.9 348.684C238.862 348.886 238.691 349.032 238.492 349.032H234.118C233.993 349.032 233.875 348.975 233.796 348.876C233.717 348.777 233.685 348.646 233.709 348.52L237.642 327.622C237.68 327.42 237.852 327.274 238.051 327.274H242.425C242.549 327.274 242.667 327.332 242.746 327.431C242.825 327.53 242.857 327.66 242.834 327.787L241.885 332.83H245.276C247.859 332.83 249.611 333.301 250.631 334.268C251.671 335.255 251.995 336.833 251.595 338.959L249.765 348.684C249.727 348.886 249.556 349.032 249.356 349.032H244.913Z" fill="black"/>
<path d="M242.425 326.845H238.052C237.653 326.845 237.31 327.137 237.234 327.541L233.3 348.439C233.253 348.691 233.317 348.952 233.475 349.15C233.634 349.348 233.869 349.463 234.118 349.463H238.492C238.891 349.463 239.234 349.171 239.31 348.767L241.432 337.491H244.241C245.541 337.491 245.814 337.777 245.825 337.79C245.903 337.877 246.007 338.283 245.836 339.192L244.096 348.439C244.049 348.691 244.113 348.952 244.271 349.15C244.429 349.348 244.665 349.463 244.914 349.463H249.357C249.756 349.463 250.099 349.171 250.175 348.767L252.005 339.042C252.434 336.759 252.067 335.047 250.913 333.952C249.812 332.908 247.969 332.401 245.276 332.401H242.39L243.243 327.869C243.291 327.617 243.227 327.356 243.068 327.158C242.91 326.96 242.674 326.845 242.425 326.845ZM242.425 327.705L241.38 333.261H245.276C247.728 333.261 249.419 333.703 250.35 334.586C251.28 335.469 251.559 336.9 251.187 338.878L249.357 348.603H244.914L246.654 339.356C246.852 338.305 246.779 337.587 246.435 337.205C246.091 336.822 245.36 336.63 244.241 336.63H240.745L238.492 348.603H234.118L238.052 327.705H242.425Z" fill="white"/>
<path d="M258.516 344.875C260.191 344.875 261.442 344.556 262.233 343.927C263.016 343.305 263.557 342.226 263.84 340.722C264.104 339.316 264.004 338.334 263.541 337.805C263.068 337.263 262.045 336.989 260.501 336.989H257.824L256.34 344.875H258.516ZM249.76 354.589C249.636 354.589 249.518 354.532 249.439 354.432C249.359 354.333 249.327 354.203 249.351 354.077L253.284 333.179C253.322 332.977 253.494 332.831 253.693 332.831H262.17C264.835 332.831 266.818 333.578 268.064 335.052C269.317 336.533 269.704 338.603 269.214 341.206C269.015 342.266 268.672 343.25 268.195 344.132C267.718 345.014 267.086 345.831 266.319 346.559C265.4 347.447 264.361 348.091 263.232 348.47C262.12 348.843 260.693 349.033 258.99 349.033H255.557L254.577 354.241C254.539 354.443 254.368 354.589 254.168 354.589H249.76Z" fill="black"/>
<path d="M258.168 337.419H260.502C262.365 337.419 263.012 337.841 263.232 338.093C263.597 338.51 263.666 339.391 263.432 340.64C263.168 342.038 262.679 343.029 261.979 343.586C261.263 344.156 260.097 344.444 258.516 344.444H256.846L258.168 337.419ZM262.171 332.4H253.694C253.295 332.4 252.952 332.692 252.876 333.097L248.943 353.994C248.895 354.246 248.959 354.507 249.117 354.706C249.276 354.904 249.511 355.019 249.76 355.019H254.169C254.568 355.019 254.91 354.727 254.987 354.322L255.901 349.463H258.99C260.737 349.463 262.208 349.266 263.361 348.878C264.547 348.48 265.639 347.805 266.604 346.873C267.403 346.114 268.061 345.263 268.559 344.341C269.058 343.42 269.416 342.392 269.624 341.287C270.14 338.548 269.72 336.354 268.378 334.768C267.049 333.197 264.961 332.4 262.171 332.4ZM255.835 345.305H258.516C260.294 345.305 261.618 344.959 262.488 344.267C263.358 343.576 263.944 342.421 264.249 340.804C264.541 339.251 264.408 338.155 263.851 337.516C263.293 336.878 262.176 336.558 260.502 336.558H257.481L255.835 345.305ZM262.171 333.261C264.721 333.261 266.582 333.952 267.751 335.334C268.92 336.716 269.272 338.646 268.806 341.123C268.614 342.144 268.289 343.076 267.832 343.922C267.374 344.767 266.776 345.541 266.038 346.242C265.157 347.093 264.179 347.699 263.103 348.06C262.027 348.422 260.657 348.602 258.99 348.602H255.214L254.169 354.158H249.76L253.694 333.261H262.171Z" fill="white"/>
<g clip-path="url(#clip3_3128_2598)">
<path d="M378 317.325H331V364.325H378V317.325Z" fill="#F7DF1E"/>
<path d="M362.572 354.044C363.519 355.59 364.75 356.726 366.929 356.726C368.759 356.726 369.928 355.811 369.928 354.548C369.928 353.033 368.727 352.497 366.712 351.616L365.608 351.142C362.421 349.784 360.304 348.083 360.304 344.487C360.304 341.175 362.828 338.653 366.772 338.653C369.58 338.653 371.599 339.631 373.054 342.19L369.614 344.398C368.857 343.04 368.04 342.505 366.772 342.505C365.478 342.505 364.659 343.326 364.659 344.398C364.659 345.723 365.479 346.259 367.374 347.08L368.478 347.553C372.231 349.162 374.349 350.802 374.349 354.491C374.349 358.467 371.226 360.646 367.031 360.646C362.929 360.646 360.279 358.691 358.983 356.129L362.572 354.044ZM346.97 354.427C347.664 355.658 348.295 356.698 349.813 356.698C351.264 356.698 352.179 356.131 352.179 353.923V338.905H356.595V353.983C356.595 358.556 353.914 360.637 350.001 360.637C346.464 360.637 344.416 358.807 343.375 356.603L346.97 354.427Z" fill="black"/>
</g>
<defs>
<radialGradient id="paint0_radial_3128_2598" cx="0" cy="0" r="1" gradientUnits="userSpaceOnUse" gradientTransform="translate(226.299 328.959) scale(50.4104 52.055)">
<stop stop-color="#AEB2D5"/>
<stop offset="0.3" stop-color="#AEB2D5"/>
<stop offset="0.75" stop-color="#484C89"/>
<stop offset="1" stop-color="#484C89"/>
</radialGradient>
<clipPath id="clip0_3128_2598">
<rect width="236" height="69" fill="white" transform="translate(0.961914 148.325)"/>
</clipPath>
<clipPath id="clip1_3128_2598">
<rect width="330" height="75" fill="white" transform="translate(0.961914 0.325195)"/>
</clipPath>
<clipPath id="clip2_3128_2598">
<rect width="76" height="58" fill="white" transform="translate(428.139 313.481)"/>
</clipPath>
<clipPath id="clip3_3128_2598">
<rect width="47" height="47" fill="white" transform="translate(331 317.325)"/>
</clipPath>
</defs>
</svg>
